<svg width="301" height="66" viewBox="0 0 301 66" fill="none" xmlns="http://www.w3.org/2000/svg">
<path d="M0 32.9992C0 14.9045 14.6714 0.234375 32.7674 0.234375C50.8634 0.234375 65.5323 14.9045 65.5323 32.9992C65.5323 51.0971 50.8634 65.7673 32.7674 65.7673C14.6714 65.7673 0 51.0971 0 32.9992Z" fill="#139FD5"/>
<path d="M40.2012 19.793C42.7391 19.8336 44.9424 20.5176 46.7449 21.8508C48.5029 23.156 49.4429 24.9756 49.6093 27.4094H45.1958C45.0123 25.9143 44.2603 24.8232 42.9583 24.1658C42.2018 23.7847 41.2561 23.5987 40.2018 23.5421V19.793H40.2012Z" fill="white"/>
<path d="M24.8886 24.0018C22.9286 24.0018 21.4748 24.6407 20.4452 25.9592C19.6412 26.9704 19.2372 28.2514 19.2372 29.7636V43.8317H14.752V29.6207C14.752 26.6236 15.7345 24.1974 17.6697 22.4C19.5751 20.6064 21.9346 19.7344 24.8892 19.7344C27.8698 19.7344 30.2554 20.6153 32.1804 22.4362C34.0674 24.2546 35.0258 26.675 35.0258 29.6207V34.5169H30.545V29.7636C30.545 28.2514 30.1379 26.9704 29.337 25.9592C28.3049 24.6407 26.8511 24.0018 24.8886 24.0018Z" fill="white"/>
<path d="M47.8629 43.3227C46.1309 44.8013 43.6355 45.5508 40.4376 45.5508C37.1629 45.5508 35.0664 44.8077 33.2156 43.3463C31.4741 41.9782 30.5513 40.09 30.4668 37.7267H34.8803C35.0664 38.8019 35.4074 39.6447 35.8876 40.2164C36.8454 41.3526 37.9664 41.9306 40.2268 41.9306C41.5542 41.9306 42.6479 41.7807 43.4894 41.4917C45.1712 40.9061 46.0274 39.787 46.0274 38.1731C46.0274 37.1944 45.5904 36.4266 44.7273 35.888C43.9334 35.4142 42.7349 35.0045 41.0594 34.6463L40.1995 34.4564H40.202V30.1445L44.0115 31.0413C45.9181 31.4916 47.3605 32.0944 48.2948 32.8298C49.7435 33.9737 50.4459 35.5876 50.4459 37.7718C50.4453 39.9909 49.5771 41.8562 47.8629 43.3227Z" fill="white"/>
<path d="M232.414 25.5092C230.62 23.8147 228.402 22.9922 225.62 22.9922C222.87 22.9922 220.673 23.8032 218.903 25.4704C217.104 27.1414 216.193 29.4025 216.193 32.1888V47.454H220.143V32.3228C220.143 30.8614 220.54 29.6248 221.319 28.641C222.319 27.3618 223.726 26.7432 225.62 26.7432C227.519 26.7432 228.931 27.3625 229.936 28.6423L232.414 25.5092Z" fill="#139FD5"/>
<path d="M300.19 25.5092C298.396 23.8147 296.176 22.9922 293.397 22.9922C290.646 22.9922 288.448 23.8032 286.679 25.4704C284.88 27.1414 283.971 29.4025 283.971 32.1888V47.454H287.922V32.3228C287.922 30.8614 288.316 29.6248 289.093 28.641C290.095 27.3618 291.502 26.7432 293.397 26.7432C295.295 26.7432 296.707 27.3625 297.709 28.6423L300.19 25.5092Z" fill="#139FD5"/>
<path d="M121.776 36.8101C121.776 32.502 120.813 29.0883 118.918 26.6665C116.987 24.1965 114.278 22.9453 110.865 22.9453C107.413 22.9453 104.604 24.2441 102.503 26.8031C100.524 29.2223 99.5215 32.2937 99.5215 35.9381C99.5215 39.7114 100.431 42.7708 102.231 45.0343C104.216 47.5082 107.123 48.7644 110.866 48.7644C113.815 48.7644 116.231 47.9654 118.056 46.3814C119.605 45.0242 120.784 43.0572 121.548 40.5351L121.771 39.8117H117.546L117.445 40.2436C117.073 41.8143 116.314 43.0064 115.123 43.8797C113.943 44.7479 112.508 45.1849 110.867 45.1849C108.494 45.1849 106.698 44.4145 105.385 42.8178C104.249 41.4332 103.628 39.6046 103.544 37.3709H121.777V36.8101H121.776ZM110.865 26.5192C113.08 26.5192 114.757 27.2934 116.006 28.885C117.059 30.2162 117.633 31.9412 117.719 34.0009H103.612C103.947 31.9654 104.664 30.2607 105.758 28.925C107.091 27.3055 108.761 26.5192 110.865 26.5192Z" fill="white"/>
<path d="M133.086 27.6468H138.286V23.8202H132.795V17.2422H128.842V23.8202H125.047V27.6468H128.842V38.9451C128.842 41.7326 129.754 43.9911 131.55 45.6622C133.321 47.3294 135.517 48.1417 138.271 48.1417V44.3906C136.373 44.3906 134.97 43.7701 133.968 42.4929C133.19 41.5091 132.795 40.2699 132.795 38.8098V27.6468H133.086Z" fill="white"/>
<path d="M211.598 36.8101C211.598 32.502 210.638 29.0883 208.742 26.6665C206.81 24.1965 204.104 22.9453 200.692 22.9453C197.24 22.9453 194.423 24.2441 192.326 26.8031C190.346 29.2223 189.344 32.2937 189.344 35.9381C189.344 39.7114 190.255 42.7708 192.056 45.0343C194.041 47.5082 196.944 48.7644 200.692 48.7644C203.635 48.7644 206.055 47.9654 207.879 46.3814C209.43 45.0242 210.606 43.0572 211.374 40.5351L211.597 39.8117H207.371L207.27 40.2436C206.897 41.8143 206.133 43.0064 204.948 43.8797C203.764 44.7479 202.333 45.1849 200.693 45.1849C198.314 45.1849 196.523 44.4145 195.21 42.8178C194.076 41.4332 193.453 39.6046 193.364 37.3709H211.599V36.8101H211.598ZM200.692 26.5192C202.904 26.5192 204.582 27.2934 205.826 28.885C206.879 30.2162 207.457 31.9412 207.541 34.0009H193.436C193.767 31.9654 194.484 30.2607 195.578 28.925C196.911 27.3055 198.583 26.5192 200.692 26.5192Z" fill="#139FD5"/>
<path d="M233.463 23.8203H238.329L244.809 41.7848L251.494 23.8203H256.06L246.454 47.5969H242.794L233.463 23.8203Z" fill="#139FD5"/>
<path d="M279.371 36.8101C279.371 32.502 278.409 29.0883 276.513 26.6665C274.586 24.1965 271.874 22.9453 268.459 22.9453C265.009 22.9453 262.194 24.2441 260.1 26.8031C258.123 29.2223 257.115 32.2937 257.115 35.9381C257.115 39.7114 258.029 42.7708 259.829 45.0343C261.814 47.5082 264.714 48.7644 268.459 48.7644C271.407 48.7644 273.824 47.9654 275.653 46.3814C277.203 45.0242 278.379 43.0572 279.143 40.5351L279.367 39.8117H275.142L275.043 40.2436C274.667 41.8143 273.907 43.0064 272.717 43.8797C271.538 44.7479 270.101 45.1849 268.46 45.1849C266.084 45.1849 264.295 44.4145 262.982 42.8178C261.846 41.4332 261.222 39.6046 261.136 37.3709H279.371L279.371 36.8101ZM268.459 26.5192C270.673 26.5192 272.351 27.2934 273.599 28.885C274.652 30.2162 275.228 31.9412 275.313 34.0009H261.21C261.539 31.9654 262.258 30.2607 263.348 28.925C264.682 27.3055 266.357 26.5192 268.459 26.5192Z" fill="#139FD5"/>
<path d="M85.9578 26.74C87.8581 26.74 89.2675 27.3592 90.2722 28.639C91.0465 29.6215 91.4396 30.8607 91.4396 32.3195V47.4508H95.3945V32.1868C95.3945 29.4367 94.5028 27.1928 92.7537 25.5053C90.9575 23.8108 88.7409 22.9883 85.9585 22.9883C83.2096 22.9883 81.014 23.7993 79.2401 25.4703C77.4414 27.1388 76.5332 29.3992 76.5332 32.1862V47.4508H80.483V32.3195C80.483 30.8581 80.8775 29.6215 81.6568 28.6377C82.6571 27.3592 84.0626 26.74 85.9578 26.74Z" fill="white"/>
<path d="M159.679 25.5064C157.885 23.8119 155.67 22.9894 152.887 22.9894C150.743 22.9894 148.942 23.4893 147.411 24.4966V17.2422H143.461V32.1873V47.4513H147.411V32.3201C147.411 30.8586 147.806 29.622 148.585 28.6382C149.587 27.3591 150.992 26.7405 152.887 26.7405C154.784 26.7405 156.196 27.3597 157.198 28.6395C157.975 29.6221 158.367 30.8612 158.367 32.3201V47.4513H162.322V32.1873C162.321 29.4372 161.431 27.1933 159.679 25.5064Z" fill="white"/>
<path d="M184.552 36.1547C183.662 35.4517 182.29 34.8756 180.469 34.4488L176.191 33.4402C174.492 33.042 173.402 32.7022 172.857 32.391C171.955 31.9019 171.49 31.1404 171.49 30.1318C171.49 29.0636 171.95 28.215 172.854 27.6199C173.712 27.054 174.861 26.7689 176.273 26.7689C177.531 26.7689 178.608 26.9861 179.468 27.4173C180.711 28.0435 181.423 29.0845 181.599 30.5097H185.804C185.646 28.1915 184.753 26.4583 183.074 25.2141C181.304 23.9044 179.138 23.2344 176.628 23.2344C173.613 23.2344 171.308 23.9356 169.775 25.3144C168.253 26.6812 167.48 28.4265 167.48 30.497C167.48 32.7892 168.235 34.417 169.793 35.486C170.723 36.13 172.482 36.7365 175.02 37.3005L177.66 37.8797C179.252 38.2195 180.398 38.6076 181.154 39.0643C181.974 39.5717 182.389 40.3021 182.389 41.2351C182.389 42.7747 181.58 43.8391 179.973 44.3993C179.174 44.6749 178.131 44.8147 176.868 44.8147C174.716 44.8147 173.165 44.264 172.253 43.185C171.795 42.633 171.472 41.8378 171.294 40.8108H167.09C167.171 43.0586 168.053 44.8572 169.707 46.1624C171.471 47.5565 173.95 48.264 177.066 48.264C180.112 48.264 182.493 47.5483 184.137 46.1389C185.774 44.7435 186.602 42.9671 186.602 40.8547C186.603 38.7784 185.929 37.2427 184.552 36.1547Z" fill="#139FD5"/>
</svg>
